# xmcd
# 
# Track frame offsets:
#     150
#     26122
#     39175
#     54617
# 
# Disc length: 948
# 
# Revision: 0
# Processed by: cddbd v1.5.2PL0 Copyright (c) Steve Scherf et al.
# Submitted via: fre:ac v1.0.31
# 
DISCID=2b03b204
DTITLE=Reef - Consideration (Single Disc 2)
DYEAR=1997
DGENRE=Rock
TTITLE0=Consideration
TTITLE1=Claypits
TTITLE2=Higher Vibration (Live)
TTITLE3=Come Back Brighter (Live)
EXTD=
EXTT0=
EXTT1=
EXTT2=Recorded Live On The Dave Mason Show "City FM", Liverpool, Dec 1996
EXTT3=Recorded Live On The Dave Mason Show "City FM", Liverpool, Dec 1996
PLAYORDER=
